<svg id="visual" viewBox="0 0 900 600" width="900" height="600" xmlns="http://www.w3.org/2000/svg" xmlns:xlink="http://www.w3.org/1999/xlink" version="1.1"><g stroke-width="1" stroke-linejoin="bevel"><path d="M470 283L537.5 227L458 217Z" fill="#081a28" stroke="#081a28"></path><path d="M470 283L535.5 300L537.5 227Z" fill="#277297" stroke="#277297"></path><path d="M537.5 227L470 106L458 217Z" fill="#297ea6" stroke="#297ea6"></path><path d="M535.5 300L638 262L537.5 227Z" fill="#00101c" stroke="#00101c"></path><path d="M537.5 227L528.5 87L470 106Z" fill="#15384f" stroke="#15384f"></path><path d="M470 283L531.5 384L535.5 300Z" fill="#1d4e6b" stroke="#1d4e6b"></path><path d="M535.5 300L531.5 384L638 262Z" fill="#277297" stroke="#277297"></path><path d="M470 106L343.5 201L458 217Z" fill="#1d4e6b" stroke="#1d4e6b"></path><path d="M458 217L343.5 201L470 283Z" fill="#19435d" stroke="#19435d"></path><path d="M470 283L463 406L531.5 384Z" fill="#112e42" stroke="#112e42"></path><path d="M682 199L528.5 87L537.5 227Z" fill="#1d4e6b" stroke="#1d4e6b"></path><path d="M334.5 334L463 406L470 283Z" fill="#15384f" stroke="#15384f"></path><path d="M343.5 201L334.5 334L470 283Z" fill="#246688" stroke="#246688"></path><path d="M638 262L682 199L537.5 227Z" fill="#112e42" stroke="#112e42"></path><path d="M334.5 334L350.5 421L463 406Z" fill="#246688" stroke="#246688"></path><path d="M425 0L341.5 68L470 106Z" fill="#205a7a" stroke="#205a7a"></path><path d="M470 106L341.5 68L343.5 201Z" fill="#246688" stroke="#246688"></path><path d="M211 306L261 414L334.5 334Z" fill="#1d4e6b" stroke="#1d4e6b"></path><path d="M682 199L676 88L528.5 87Z" fill="#112e42" stroke="#112e42"></path><path d="M528.5 87L425 0L470 106Z" fill="#00101c" stroke="#00101c"></path><path d="M676 88L562.5 0L528.5 87Z" fill="#277297" stroke="#277297"></path><path d="M562.5 0L425 0L528.5 87Z" fill="#0c2435" stroke="#0c2435"></path><path d="M712 428L769.5 287L638 262Z" fill="#081a28" stroke="#081a28"></path><path d="M638 262L769.5 287L682 199Z" fill="#297ea6" stroke="#297ea6"></path><path d="M682 199L758.5 80L676 88Z" fill="#277297" stroke="#277297"></path><path d="M531.5 384L712 428L638 262Z" fill="#0c2435" stroke="#0c2435"></path><path d="M684 499L712 428L531.5 384Z" fill="#00101c" stroke="#00101c"></path><path d="M571.5 524L531.5 384L463 406Z" fill="#297ea6" stroke="#297ea6"></path><path d="M350.5 421L432 522L463 406Z" fill="#081a28" stroke="#081a28"></path><path d="M211 306L334.5 334L343.5 201Z" fill="#297ea6" stroke="#297ea6"></path><path d="M334.5 334L261 414L350.5 421Z" fill="#15384f" stroke="#15384f"></path><path d="M350.5 421L364.5 526L432 522Z" fill="#19435d" stroke="#19435d"></path><path d="M432 522L571.5 524L463 406Z" fill="#1d4e6b" stroke="#1d4e6b"></path><path d="M202 169L211 306L343.5 201Z" fill="#112e42" stroke="#112e42"></path><path d="M425 0L327.5 0L341.5 68Z" fill="#19435d" stroke="#19435d"></path><path d="M341.5 68L234 102L343.5 201Z" fill="#205a7a" stroke="#205a7a"></path><path d="M254 0L234 102L341.5 68Z" fill="#00101c" stroke="#00101c"></path><path d="M234 102L202 169L343.5 201Z" fill="#19435d" stroke="#19435d"></path><path d="M261 414L364.5 526L350.5 421Z" fill="#00101c" stroke="#00101c"></path><path d="M432 522L483 600L571.5 524Z" fill="#081a28" stroke="#081a28"></path><path d="M821.5 187L758.5 80L682 199Z" fill="#00101c" stroke="#00101c"></path><path d="M676 88L699 0L562.5 0Z" fill="#246688" stroke="#246688"></path><path d="M571.5 524L684 499L531.5 384Z" fill="#19435d" stroke="#19435d"></path><path d="M900 286L821.5 187L769.5 287Z" fill="#246688" stroke="#246688"></path><path d="M758.5 80L699 0L676 88Z" fill="#246688" stroke="#246688"></path><path d="M769.5 287L821.5 187L682 199Z" fill="#00101c" stroke="#00101c"></path><path d="M810.5 403L769.5 287L712 428Z" fill="#112e42" stroke="#112e42"></path><path d="M327.5 0L254 0L341.5 68Z" fill="#1d4e6b" stroke="#1d4e6b"></path><path d="M234 102L142.5 106L202 169Z" fill="#15384f" stroke="#15384f"></path><path d="M757.5 491L810.5 403L712 428Z" fill="#00101c" stroke="#00101c"></path><path d="M346.5 600L483 600L432 522Z" fill="#205a7a" stroke="#205a7a"></path><path d="M571.5 524L647 600L684 499Z" fill="#205a7a" stroke="#205a7a"></path><path d="M483 600L543.5 600L571.5 524Z" fill="#246688" stroke="#246688"></path><path d="M684 499L757.5 491L712 428Z" fill="#15384f" stroke="#15384f"></path><path d="M757.5 600L757.5 491L684 499Z" fill="#15384f" stroke="#15384f"></path><path d="M142.5 381L215 478L261 414Z" fill="#112e42" stroke="#112e42"></path><path d="M261 414L215 478L364.5 526Z" fill="#205a7a" stroke="#205a7a"></path><path d="M364.5 526L346.5 600L432 522Z" fill="#277297" stroke="#277297"></path><path d="M142.5 381L261 414L211 306Z" fill="#277297" stroke="#277297"></path><path d="M202 169L131.5 305L211 306Z" fill="#19435d" stroke="#19435d"></path><path d="M89.5 194L131.5 305L202 169Z" fill="#081a28" stroke="#081a28"></path><path d="M131.5 305L142.5 381L211 306Z" fill="#081a28" stroke="#081a28"></path><path d="M137.5 0L142.5 106L234 102Z" fill="#0c2435" stroke="#0c2435"></path><path d="M255 600L346.5 600L364.5 526Z" fill="#277297" stroke="#277297"></path><path d="M543.5 600L647 600L571.5 524Z" fill="#15384f" stroke="#15384f"></path><path d="M900 412L900 286L810.5 403Z" fill="#246688" stroke="#246688"></path><path d="M810.5 403L900 286L769.5 287Z" fill="#081a28" stroke="#081a28"></path><path d="M900 119L822.5 0L758.5 80Z" fill="#205a7a" stroke="#205a7a"></path><path d="M900 286L900 193L821.5 187Z" fill="#081a28" stroke="#081a28"></path><path d="M758.5 80L822.5 0L699 0Z" fill="#00101c" stroke="#00101c"></path><path d="M142.5 106L89.5 194L202 169Z" fill="#205a7a" stroke="#205a7a"></path><path d="M131.5 305L0 372L142.5 381Z" fill="#277297" stroke="#277297"></path><path d="M900 119L758.5 80L821.5 187Z" fill="#15384f" stroke="#15384f"></path><path d="M900 193L900 119L821.5 187Z" fill="#297ea6" stroke="#297ea6"></path><path d="M215 478L255 600L364.5 526Z" fill="#297ea6" stroke="#297ea6"></path><path d="M147.5 600L255 600L215 478Z" fill="#00101c" stroke="#00101c"></path><path d="M254 0L137.5 0L234 102Z" fill="#0c2435" stroke="#0c2435"></path><path d="M0 116L0 165L89.5 194Z" fill="#0c2435" stroke="#0c2435"></path><path d="M900 493L900 412L810.5 403Z" fill="#112e42" stroke="#112e42"></path><path d="M900 493L810.5 403L757.5 491Z" fill="#297ea6" stroke="#297ea6"></path><path d="M647 600L757.5 600L684 499Z" fill="#00101c" stroke="#00101c"></path><path d="M900 119L900 0L822.5 0Z" fill="#277297" stroke="#277297"></path><path d="M757.5 600L900 493L757.5 491Z" fill="#19435d" stroke="#19435d"></path><path d="M88.5 537L147.5 600L215 478Z" fill="#205a7a" stroke="#205a7a"></path><path d="M88.5 537L215 478L142.5 381Z" fill="#246688" stroke="#246688"></path><path d="M0 165L0 293L89.5 194Z" fill="#0c2435" stroke="#0c2435"></path><path d="M89.5 194L0 293L131.5 305Z" fill="#1d4e6b" stroke="#1d4e6b"></path><path d="M0 503L88.5 537L142.5 381Z" fill="#246688" stroke="#246688"></path><path d="M0 116L89.5 194L142.5 106Z" fill="#277297" stroke="#277297"></path><path d="M0 293L0 372L131.5 305Z" fill="#00101c" stroke="#00101c"></path><path d="M0 0L0 116L142.5 106Z" fill="#112e42" stroke="#112e42"></path><path d="M757.5 600L900 600L900 493Z" fill="#112e42" stroke="#112e42"></path><path d="M137.5 0L0 0L142.5 106Z" fill="#1d4e6b" stroke="#1d4e6b"></path><path d="M0 372L0 503L142.5 381Z" fill="#297ea6" stroke="#297ea6"></path><path d="M88.5 537L0 600L147.5 600Z" fill="#19435d" stroke="#19435d"></path><path d="M0 503L0 600L88.5 537Z" fill="#081a28" stroke="#081a28"></path></g></svg>